<svg width="181" height="181" viewBox="0 0 181 181" fill="none" xmlns="http://www.w3.org/2000/svg">
<g clip-path="url(#clip0_28_65)">
<path d="M10.5034 58.3435L15.672 40.2191C16.0205 38.9983 16.7573 37.9243 17.7709 37.1598C18.7845 36.3953 20.0196 35.9819 21.2892 35.9823H115.796C118.091 35.9821 120.295 36.8827 121.934 38.4903L141.091 57.288L10.5034 58.3435Z" fill="#E0E0E0"/>
<path d="M23.8417 35.9819H21.2892C20.0196 35.9815 18.7845 36.3949 17.7709 37.1594C16.7573 37.9239 16.0205 38.9979 15.672 40.2187L10.5034 58.3431L17.4812 58.2866L23.8417 35.9819Z" fill="#C9C9C9"/>
<path d="M175.611 105.877L141.091 57.2881C138.902 55.7989 136.315 55.0025 133.668 55.0023H13.8403C11.9974 55.0023 10.5034 56.4983 10.5034 58.3435C6.71789 72.3594 4.80037 98.633 4.80037 113.152V113.664L2.88788 116.097V145.082H174.265C176.39 145.082 178.113 143.358 178.113 141.23L177.795 112.548C177.759 110.155 176.997 107.829 175.611 105.877Z" fill="#E0E0E0"/>
<path d="M11.7619 113.664V113.152C11.7619 98.633 13.6794 72.3598 17.465 58.3435V55.0023H13.8403C11.9975 55.0023 10.5034 56.4983 10.5034 58.3435C6.71791 72.3594 4.80039 98.6326 4.80039 113.152V113.664L2.88751 116.097V145.082H9.84905V116.097L11.7619 113.664Z" fill="#C9C9C9"/>
<path d="M87.6957 67.4902H128.61C130.585 67.4902 132.43 68.4795 133.524 70.1263L146.428 89.5497H87.6957V67.4902Z" fill="#29B6F6"/>
<path d="M133.524 70.1263C132.986 69.3158 132.255 68.6509 131.398 68.191C130.541 67.7311 129.583 67.4903 128.61 67.4902H124.037L138.692 89.5501H146.427L133.524 70.1263Z" fill="#00AAE5"/>
<path d="M146.427 91.4839H87.6957C87.1828 91.4839 86.6909 91.2802 86.3283 90.9175C85.9656 90.5549 85.7619 90.063 85.7619 89.5501V67.4902C85.7619 66.9773 85.9656 66.4855 86.3283 66.1228C86.6909 65.7602 87.1828 65.5564 87.6957 65.5564H128.61C129.902 65.5551 131.174 65.8742 132.313 66.485C133.452 67.0958 134.421 67.9793 135.134 69.0565L148.038 88.4804C148.877 89.7427 147.943 91.4839 146.427 91.4839ZM89.6294 87.6164H142.821L131.913 71.1964C131.552 70.651 131.061 70.2036 130.485 69.8943C129.908 69.585 129.264 69.4234 128.61 69.424H89.6294V87.6164Z" fill="#333333"/>
<path d="M177.144 108.871L4.85026 108.828C4.81836 110.269 4.80185 111.711 4.80075 113.152V113.664L2.88788 116.097V145.082H174.265C176.39 145.082 178.113 143.358 178.113 141.23L177.795 112.548C177.774 111.295 177.555 110.054 177.144 108.871Z" fill="#ED4848"/>
<path d="M11.7619 113.664V113.152C11.763 111.711 11.7795 110.27 11.8114 108.829L4.84989 108.827C4.81799 110.269 4.80149 111.71 4.80039 113.152V113.664L2.88751 116.097V145.082H9.84905V116.097L11.7619 113.664Z" fill="#CC4040"/>
<path d="M104.568 35.9819H86.8607V25.4843C86.8607 20.5942 90.8249 16.6303 95.7146 16.6303C100.604 16.6303 104.568 20.5942 104.568 25.4843V35.9819H104.568Z" fill="#ED4848"/>
<path d="M98.8086 17.1869C97.8188 16.8179 96.7709 16.6294 95.7146 16.6303C90.8249 16.6303 86.8607 20.5915 86.8607 25.4777V35.9819H93.0487V25.4777C93.0487 21.679 95.4446 18.4407 98.8086 17.1869Z" fill="#CC4040"/>
<path d="M35.8306 164.37C46.5105 164.37 55.1683 155.734 55.1683 145.082C55.1683 134.43 46.5105 125.795 35.8306 125.795C25.1508 125.795 16.493 134.43 16.493 145.082C16.493 155.734 25.1508 164.37 35.8306 164.37Z" fill="#E5E5E5"/>
<path d="M145.005 164.37C155.685 164.37 164.343 155.734 164.343 145.082C164.343 134.43 155.685 125.795 145.005 125.795C134.325 125.795 125.667 134.43 125.667 145.082C125.667 155.734 134.325 164.37 145.005 164.37Z" fill="#E5E5E5"/>
<path d="M50.7171 67.4902H73.4365V90.1929H50.7171V67.4902Z" fill="#29B6F6"/>
<path d="M66.475 67.4902H73.4365V90.1929H66.475V67.4902Z" fill="#00AAE5"/>
<path d="M73.4365 92.1267H50.7171C50.2043 92.1267 49.7124 91.9229 49.3498 91.5603C48.9871 91.1976 48.7834 90.7058 48.7834 90.1929V67.4902C48.7834 66.9773 48.9871 66.4855 49.3498 66.1228C49.7124 65.7602 50.2043 65.5564 50.7171 65.5564H73.4365C73.9494 65.5564 74.4412 65.7602 74.8039 66.1228C75.1665 66.4855 75.3703 66.9773 75.3703 67.4902V90.1929C75.3703 90.7058 75.1665 91.1976 74.8039 91.5603C74.4412 91.9229 73.9494 92.1267 73.4365 92.1267ZM52.6509 88.2592H71.5027V69.4239H52.6509V88.2592ZM38.2622 76.9076H32.1921V70.7826C32.1921 70.2697 31.9884 69.7779 31.6257 69.4152C31.2631 69.0526 30.7712 68.8488 30.2583 68.8488C29.7455 68.8488 29.2536 69.0526 28.891 69.4152C28.5283 69.7779 28.3246 70.2697 28.3246 70.7826V76.9076H22.2545C21.7416 76.9076 21.2498 77.1113 20.8871 77.474C20.5245 77.8366 20.3207 78.3285 20.3207 78.8414C20.3207 79.3542 20.5245 79.8461 20.8871 80.2087C21.2498 80.5714 21.7416 80.7751 22.2545 80.7751H28.3246V86.9001C28.3246 87.413 28.5283 87.9048 28.891 88.2675C29.2536 88.6301 29.7455 88.8339 30.2583 88.8339C30.7712 88.8339 31.2631 88.6301 31.6257 88.2675C31.9884 87.9048 32.1921 87.413 32.1921 86.9001V80.7751H38.2618C38.7746 80.7752 39.2665 80.5715 39.6292 80.2089C39.9919 79.8463 40.1957 79.3544 40.1957 78.8416C40.1958 78.3287 39.9921 77.8368 39.6295 77.4741C39.2669 77.1114 38.775 76.9076 38.2622 76.9076Z" fill="#333333"/>
<path d="M179.066 162.436H171.79C171.277 162.436 170.785 162.64 170.423 163.002C170.06 163.365 169.856 163.857 169.856 164.37C169.856 164.883 170.06 165.374 170.423 165.737C170.785 166.1 171.277 166.303 171.79 166.303H179.066C179.579 166.303 180.071 166.1 180.434 165.737C180.796 165.374 181 164.883 181 164.37C181 163.857 180.796 163.365 180.434 163.002C180.071 162.64 179.579 162.436 179.066 162.436ZM97.1928 162.436H58.4522C57.9393 162.436 57.4475 162.64 57.0848 163.002C56.7222 163.365 56.5184 163.857 56.5184 164.37C56.5184 164.883 56.7222 165.374 57.0848 165.737C57.4475 166.1 57.9393 166.303 58.4522 166.303H97.1928C97.7056 166.303 98.1975 166.1 98.5601 165.737C98.9228 165.374 99.1265 164.883 99.1265 164.37C99.1265 163.857 98.9228 163.365 98.5601 163.002C98.1975 162.64 97.7056 162.436 97.1928 162.436Z" fill="#333333"/>
<path d="M166.184 147.016H174.265C177.453 147.016 180.046 144.421 180.046 141.209L179.728 112.518C179.687 109.766 178.782 107.001 177.187 104.757L142.652 56.1506C142.59 56.0655 123.288 37.1096 123.288 37.1096C121.291 35.1418 118.599 34.0416 115.795 34.0481H106.501V25.4843C106.501 19.536 101.662 14.6966 95.7138 14.6966C89.7656 14.6966 84.9269 19.536 84.9269 25.4843V34.0485H21.2892C17.8339 34.0485 14.7592 36.3678 13.8125 39.6889C12.0663 45.8127 10.3104 51.9338 8.577 58.0612C5.06645 71.2428 3.24562 94.349 2.92037 108.755C2.91998 108.766 2.91688 108.776 2.9165 108.786C2.896 109.739 2.86699 112.543 2.86661 112.995L1.36756 114.903C1.09963 115.243 0.954015 115.664 0.954118 116.098V145.083C0.954118 145.596 1.15785 146.087 1.5205 146.45C1.88315 146.813 2.37501 147.016 2.88788 147.016H14.6517C15.2311 153.381 18.6391 158.942 23.607 162.436H1.93376C1.4209 162.436 0.929036 162.64 0.566385 163.003C0.203735 163.365 0 163.857 0 164.37C0 164.883 0.203735 165.375 0.566385 165.737C0.929036 166.1 1.4209 166.304 1.93376 166.304H46.8496C47.3625 166.304 47.8543 166.1 48.217 165.737C48.5796 165.375 48.7834 164.883 48.7834 164.37C48.7834 163.621 48.3529 162.979 47.7302 162.658C52.8729 159.179 56.4179 153.518 57.0096 147.016H123.826C124.405 153.381 127.813 158.942 132.781 162.436H112.663C112.15 162.436 111.658 162.64 111.295 163.003C110.933 163.365 110.729 163.857 110.729 164.37C110.729 164.883 110.933 165.375 111.295 165.737C111.658 166.1 112.15 166.304 112.663 166.304H160.187C160.7 166.304 161.192 166.1 161.555 165.737C161.917 165.375 162.121 164.883 162.121 164.37C162.121 163.857 161.917 163.365 161.555 163.003C161.192 162.64 160.7 162.436 160.187 162.436H157.229C162.197 158.941 165.605 153.38 166.184 147.016ZM88.7944 25.4843C88.7944 21.6686 91.8985 18.5641 95.7146 18.5641C99.5307 18.5641 102.635 21.6682 102.635 25.4843V34.0485H88.7944V25.4843ZM17.5319 40.749C18.0072 39.0809 19.5526 37.9156 21.2892 37.9156H115.796C117.596 37.9156 119.295 38.6098 120.58 39.8703L134.044 53.0825C133.918 53.0794 14.0182 53.0686 14.0182 53.0686L17.5319 40.749ZM12.3703 58.8474C12.5961 58.0105 12.6081 56.9361 13.8403 56.9361H133.668C135.814 56.9336 137.916 57.5467 139.724 58.7028L173.992 106.936L6.83816 106.894C7.26746 92.573 9.05464 71.1233 12.3703 58.8474ZM35.8307 162.436C26.2342 162.436 18.4268 154.651 18.4268 145.082C18.4268 135.514 26.2342 127.729 35.8307 127.729C45.4271 127.729 53.2345 135.514 53.2345 145.082C53.2345 154.651 45.4271 162.436 35.8307 162.436ZM57.0096 143.149C56.0269 132.35 46.9057 123.861 35.8303 123.861C24.7548 123.861 15.6341 132.35 14.6509 143.149H4.82125V116.766L6.3203 114.859C6.58823 114.518 6.73384 114.097 6.73374 113.664C6.73374 113.664 6.73916 111.591 6.74999 110.762L175.671 110.804C175.789 111.389 175.852 111.98 175.861 112.569L176.178 141.229C176.178 142.287 175.32 143.148 174.265 143.148H166.184C165.201 132.35 156.08 123.86 145.005 123.86C133.929 123.86 124.808 132.35 123.825 143.148H57.0096V143.149ZM145.005 162.436C135.409 162.436 127.601 154.651 127.601 145.082C127.601 135.514 135.409 127.729 145.005 127.729C154.601 127.729 162.409 135.514 162.409 145.082C162.409 154.651 154.601 162.436 145.005 162.436Z" fill="#333333"/>
</g>
<defs>
<clipPath id="clip0_28_65">
<rect width="181" height="181" fill="white"/>
</clipPath>
</defs>
</svg>
